<?xml version="1.0" encoding="utf-8"?>
<!-- Generator: Adobe Illustrator 22.1.0, SVG Export Plug-In . SVG Version: 6.00 Build 0)  -->
<svg version="1.1" id="Capa_1" xmlns="http://www.w3.org/2000/svg" xmlns:xlink="http://www.w3.org/1999/xlink" x="0px" y="0px"
	 viewBox="0 0 512 512" style="enable-background:new 0 0 512 512;" xml:space="preserve">
<style type="text/css">
	.st0{fill:#F2F3FF;}
	.st1{fill:#737AFC;}
</style>
<g>
	<g>
		<g>
			<rect x="77.5" y="267.9" class="st0" width="404.6" height="33.7"/>
			<path class="st1" d="M474.5,152.8L454.4,67c-5.6-24.9-30.3-40.6-55.2-35.1L36.3,112.5C11.4,118-4.4,142.8,1.1,167.7l46.5,211.6
				v55.7c0,25.5,20.8,46.3,46.3,46.3h371.8c25.5,0,46.3-20.8,46.3-46.3V316.6V253v-54.7C512,175.7,495.8,156.9,474.5,152.8z
				 M465.7,181.8c9.1,0,16.4,7.4,16.4,16.4v39.8H77.5v-39.8c0-9.1,7.4-16.4,16.4-16.4H465.7z M482.1,301.6H77.5v-33.7h404.6V301.6z
				 M47.6,198.3v41.9l-17.4-78.9c-2-8.8,3.6-17.6,12.5-19.6l362.9-80.6c8.8-2,17.6,3.6,19.6,12.5c0,0.1,0,0.1,0,0.2l18.3,78.3H93.9
				C68.4,152,47.6,172.7,47.6,198.3z M482.1,434.9c0,9.1-7.4,16.4-16.4,16.4H93.9c-9.1,0-16.4-7.4-16.4-16.4v-57.5c0,0,0,0,0-0.1
				v-45.9h404.6V434.9z"/>
		</g>
	</g>
</g>
</svg>
