<?xml version="1.0"?>
<svg xmlns="http://www.w3.org/2000/svg" xmlns:xlink="http://www.w3.org/1999/xlink" version="1.1" id="Capa_1" x="0px" y="0px" viewBox="0 0 511.971 511.971" style="enable-background:new 0 0 511.971 511.971;" xml:space="preserve" width="512px" height="512px" class=""><g><path style="fill:#4B456F" d="M486.414,219.058l-89.6-74.667c-12.726-10.575-28.744-16.377-45.291-16.405H224.014  c-1.999,0-3.958,0.562-5.653,1.621L47.694,236.274c-1.662,1.039-3.005,2.515-3.883,4.267L6.606,314.951  c-15.423,30.845-2.92,68.353,27.925,83.776c8.671,4.335,18.232,6.592,27.926,6.592h383.04c12.133,0.039,23.233-6.819,28.629-17.685  l20.779-41.536c11.21-22.537,17.051-47.363,17.067-72.533C511.985,252.498,502.617,232.52,486.414,219.058z" data-original="#607D8B" class="" data-old_color="#4b456f"/><path style="fill:#ECEFF1;" d="M465.337,258.311L358.67,172.978c-4.581-3.703-11.298-2.992-15.001,1.59  c-0.987,1.221-1.693,2.645-2.066,4.17l-21.333,85.333c-1.426,5.716,2.052,11.505,7.768,12.931c0.864,0.216,1.752,0.322,2.643,0.317  h128c5.891,0.004,10.67-4.768,10.674-10.659C469.357,263.41,467.878,260.337,465.337,258.311z" data-original="#ECEFF1" class=""/><circle style="fill:#7279F8" cx="117.347" cy="159.986" r="117.333" data-original="#2196F3" class="active-path" data-old_color="#7279f8"/><g>
	<path style="fill:#FAFAFA;" d="M149.347,202.652c-2.831,0.005-5.548-1.115-7.552-3.115l-32-32c-1.999-2.004-3.12-4.721-3.115-7.552   v-64c0-5.891,4.776-10.667,10.667-10.667c5.891,0,10.667,4.776,10.667,10.667v59.584l28.885,28.864   c4.171,4.16,4.179,10.914,0.019,15.085C154.913,201.529,152.188,202.657,149.347,202.652z" data-original="#FAFAFA" class=""/>
	<circle style="fill:#FAFAFA;" cx="138.681" cy="394.652" r="64" data-original="#FAFAFA" class=""/>
</g><path style="fill:#3C365E" d="M138.681,469.319c-41.237,0-74.667-33.429-74.667-74.667s33.429-74.667,74.667-74.667  s74.667,33.429,74.667,74.667S179.918,469.319,138.681,469.319z M138.681,341.319c-29.455,0-53.333,23.878-53.333,53.333  s23.878,53.333,53.333,53.333s53.333-23.878,53.333-53.333S168.136,341.319,138.681,341.319z" data-original="#455A64" class="" data-old_color="#3c365e"/><circle style="fill:#FAFAFA;" cx="373.347" cy="394.652" r="64" data-original="#FAFAFA" class=""/><path style="fill:#3C365E" d="M373.347,469.319c-41.237,0-74.667-33.429-74.667-74.667s33.429-74.667,74.667-74.667  s74.667,33.429,74.667,74.667S414.585,469.319,373.347,469.319z M373.347,341.319c-29.455,0-53.333,23.878-53.333,53.333  s23.878,53.333,53.333,53.333s53.333-23.878,53.333-53.333S402.803,341.319,373.347,341.319z" data-original="#455A64" class="" data-old_color="#3c365e"/></g> </svg>
