<?xml version="1.0"?>
<svg xmlns="http://www.w3.org/2000/svg" xmlns:xlink="http://www.w3.org/1999/xlink" version="1.1" id="Capa_1" x="0px" y="0px" viewBox="0 0 512 512" style="enable-background:new 0 0 512 512;" xml:space="preserve" width="512px" height="512px" class=""><g><g>
	<path style="fill:#EAEBFE" d="M501.333,213.333H10.667C4.776,213.333,0,218.109,0,224v149.333   c0,29.455,23.878,53.333,53.333,53.333h405.333c29.455,0,53.333-23.878,53.333-53.333V224   C512,218.109,507.224,213.333,501.333,213.333z" data-original="#CFD8DC" class="" data-old_color="#eaebfe"/>
	<path style="fill:#EAEBFE" d="M458.667,85.333H53.333C23.878,85.333,0,109.211,0,138.667V160c0,5.891,4.776,10.667,10.667,10.667   h490.667c5.891,0,10.667-4.776,10.667-10.667v-21.333C512,109.211,488.122,85.333,458.667,85.333z" data-original="#CFD8DC" class="" data-old_color="#eaebfe"/>
</g><g>
	<path style="fill:#90A4AE" d="M160,320H74.667C68.776,320,64,315.224,64,309.333s4.776-10.667,10.667-10.667H160   c5.891,0,10.667,4.776,10.667,10.667S165.891,320,160,320z" data-original="#90A4AE" class=""/>
	<path style="fill:#90A4AE" d="M224,362.667H74.667C68.776,362.667,64,357.891,64,352c0-5.891,4.776-10.667,10.667-10.667H224   c5.891,0,10.667,4.776,10.667,10.667C234.667,357.891,229.891,362.667,224,362.667z" data-original="#90A4AE" class=""/>
</g><path style="fill:#4B456F" d="M384,320c0.012-6.037,2.615-11.778,7.147-15.765c4.377-3.943,4.729-10.687,0.786-15.064  c-0.248-0.276-0.511-0.538-0.786-0.786c-17.467-15.817-44.449-14.479-60.266,2.988c-15.817,17.467-14.479,44.449,2.988,60.266  c16.256,14.72,41.023,14.72,57.278,0c4.377-3.943,4.729-10.687,0.786-15.064c-0.248-0.276-0.511-0.538-0.786-0.786  C386.609,331.794,384.006,326.044,384,320z" data-original="#F44336" class="active-path" data-old_color="#4b456f"/><g>
	<circle style="fill:#7279F8" cx="405.333" cy="320" r="42.667" data-original="#455A64" class="" data-old_color="#7279f8"/>
	<rect y="149.333" style="fill:#7279F8" width="512" height="85.333" data-original="#455A64" class="" data-old_color="#7279f8"/>
</g></g> </svg>
