<?xml version="1.0" encoding="utf-8"?>
<!-- Generator: Adobe Illustrator 22.1.0, SVG Export Plug-In . SVG Version: 6.00 Build 0)  -->
<svg version="1.1" id="Capa_1" xmlns="http://www.w3.org/2000/svg" xmlns:xlink="http://www.w3.org/1999/xlink" x="0px" y="0px"
	 viewBox="0 0 512 512" style="enable-background:new 0 0 512 512;" xml:space="preserve">
<style type="text/css">
	.st0{fill:#F8D5E1;}
	.st1{fill:#D36389;}
</style>
<g>
	<g>
		<rect x="225.3" y="301.9" class="st0" width="61.5" height="144"/>
		<polygon class="st0" points="372.9,113.3 415.4,142.4 415.4,71.4 372.9,71.4 		"/>
		<path class="st1" d="M505.6,204.1L445,162.7V56.6c0-8.2-6.6-14.8-14.8-14.8H358c-8.2,0-14.8,6.6-14.8,14.8V93
			c0,0-77.7-53.3-78.8-54c-4.9-3.4-11.6-3.6-16.8,0L6.4,204.1c-6.8,4.6-8.5,13.8-3.9,20.6c2.9,4.2,7.5,6.4,12.2,6.4
			c2.9,0,5.8-0.8,8.4-2.6l43.8-30v262.2c0,8.2,6.6,14.8,14.8,14.8h348.4c8.2,0,14.8-6.6,14.8-14.8V198.6l43.8,30
			c2.6,1.8,5.5,2.6,8.4,2.6c4.7,0,9.4-2.3,12.2-6.4C514,218,512.3,208.8,505.6,204.1z M286.7,445.9h-61.5v-144h61.5V445.9z
			 M415.4,445.9h-99V287.1c0-8.2-6.6-14.8-14.8-14.8h-91.1c-8.2,0-14.8,6.6-14.8,14.8v158.8h-99V178.3L256,69.2l159.4,109.1
			L415.4,445.9L415.4,445.9z M415.4,142.4l-42.5-29.1V71.4h42.5V142.4z"/>
	</g>
</g>
</svg>
