<?xml version="1.0" encoding="utf-8"?>
<!-- Generator: Adobe Illustrator 22.1.0, SVG Export Plug-In . SVG Version: 6.00 Build 0)  -->
<svg version="1.1" id="Layer_1" xmlns="http://www.w3.org/2000/svg" xmlns:xlink="http://www.w3.org/1999/xlink" x="0px" y="0px"
	 viewBox="0 0 80 80" style="enable-background:new 0 0 80 80;" xml:space="preserve">
<style type="text/css">
	.st0{fill:#F9E4EC;}
	.st1{fill:#D36389;}
</style>
<g>
	<circle class="st0" cx="39.5" cy="40.5" r="33.5"/>
</g>
<path class="st1" d="M50.1,30.7c0,1.2-0.9,2-1.5,2.5c-0.2,0.2-0.7,0.6-0.7,0.7c0,0.6-0.4,1-1,1c0,0,0,0,0,0c-0.6,0-1-0.4-1-1
	c0-1.1,0.8-1.7,1.4-2.3c0.5-0.4,0.8-0.7,0.8-1c0-0.5-0.4-1-1-1c-0.5,0-1,0.4-1,1c0,0.6-0.5,1-1,1c-0.6,0-1-0.5-1-1c0-1.7,1.3-3,3-3
	C48.7,27.7,50.1,29.1,50.1,30.7z M46.8,35.9c-0.6,0-1,0.5-1,1v0c0,0.6,0.4,1,1,1s1-0.5,1-1C47.8,36.4,47.4,35.9,46.8,35.9z
	 M26.5,42.9c-0.6,0-1,0.5-1,1s0.5,1,1,1h0.1c0.6,0,1-0.5,1-1S27.2,42.9,26.5,42.9L26.5,42.9z M30,42.9c-0.6,0-1,0.5-1,1s0.5,1,1,1
	h0.1c0.6,0,1-0.5,1-1S30.7,42.9,30,42.9L30,42.9z M59.6,26.8v11.3c0,2.7-2.2,4.9-4.8,4.9H41.7c-0.3,0-0.5,0-0.6,0
	c-0.2,0-0.4,0-0.5,0c-0.1,0.1-0.3,0.2-0.5,0.4c-0.1,0.1-0.2,0.2-0.3,0.2l-3.7,3.4c-0.3,0.3-0.7,0.3-1.1,0.2
	c-0.4-0.2-0.6-0.5-0.6-0.9V35.6H23.9c-1.6,0-2.9,1.3-2.9,2.9v11.3c0,1.6,1.3,2.8,2.9,2.8h14.6c0.3,0,0.5,0.1,0.7,0.3l3,2.8v-9.6
	c0-0.6,0.5-1,1-1c0.6,0,1,0.5,1,1V58c0,0.4-0.2,0.8-0.6,0.9C43.4,59,43.3,59,43.2,59c-0.2,0-0.5-0.1-0.7-0.3l-4.4-4H23.9
	c-2.7,0-4.9-2.1-4.9-4.8V38.5c0-2.7,2.2-4.9,4.9-4.9h10.5v-6.8c0-2.7,2.2-4.8,4.9-4.8h15.4C57.4,22,59.6,24.2,59.6,26.8z M57.6,26.8
	c0-1.6-1.2-2.8-2.8-2.8H39.3c-1.6,0-2.9,1.3-2.9,2.8v7.8V44l2-1.8c0.1-0.1,0.2-0.2,0.3-0.2c0.9-0.9,1.2-1,2.4-1c0.2,0,0.4,0,0.6,0
	h13.1c1.6,0,2.8-1.3,2.8-2.8L57.6,26.8L57.6,26.8z"/>
</svg>
