<?xml version="1.0" encoding="utf-8"?>
<!-- Generator: Adobe Illustrator 22.1.0, SVG Export Plug-In . SVG Version: 6.00 Build 0)  -->
<svg version="1.1" id="Layer_1" xmlns="http://www.w3.org/2000/svg" xmlns:xlink="http://www.w3.org/1999/xlink" x="0px" y="0px"
	 viewBox="0 0 80 80" style="enable-background:new 0 0 80 80;" xml:space="preserve">
<style type="text/css">
	.st0{fill:#E2E2ED;}
	.st1{fill:#4B456F;}
	.st2{fill:#D36389;}
</style>
<g>
	<circle class="st0" cx="40.5" cy="40.5" r="33.5"/>
</g>
<g>
	<g>
		<g>
			<path class="st1" d="M55,30.3H26c-1.6,0-3,1.3-3,3V49c0,1.6,1.3,3,3,3h29c1.6,0,3-1.3,3-3V33.3C58,31.7,56.6,30.3,55,30.3z
				 M56.9,49c0,1-0.8,1.9-1.9,1.9H26c-1,0-1.9-0.8-1.9-1.9V33.3c0-1,0.8-1.9,1.9-1.9h29c1,0,1.9,0.8,1.9,1.9V49z"/>
			<path class="st1" d="M32,35.1h-3.6c-1,0-1.8,0.8-1.8,1.8v2.4c0,1,0.8,1.8,1.8,1.8H32c1,0,1.8-0.8,1.8-1.8v-2.4
				C33.8,35.9,33,35.1,32,35.1z M29,40h-0.6c-0.4,0-0.6-0.3-0.6-0.6v-2.4c0-0.4,0.3-0.6,0.6-0.6H29V40z M32.7,39.3
				c0,0.4-0.3,0.6-0.6,0.6h-1.9v-1.3h2.5V39.3z M32.7,37.6h-2.5v-1.3H32c0.4,0,0.6,0.3,0.6,0.6V37.6z"/>
			<path class="st1" d="M31.4,44.8h-3.6c-0.6,0-1.2,0.5-1.2,1.2v1.2c0,0.6,0.5,1.2,1.2,1.2h3.6c0.6,0,1.2-0.5,1.2-1.2V46
				C32.6,45.3,32.1,44.8,31.4,44.8z M31.5,47.2C31.5,47.2,31.4,47.2,31.5,47.2l-3.7,0c0,0,0,0,0,0V46c0,0,0,0,0,0h3.6c0,0,0,0,0,0
				V47.2z"/>
			<path class="st1" d="M38.7,44.8h-3.6c-0.6,0-1.2,0.5-1.2,1.2v1.2c0,0.6,0.5,1.2,1.2,1.2h3.6c0.6,0,1.2-0.5,1.2-1.2V46
				C39.9,45.3,39.3,44.8,38.7,44.8z M38.7,47.2C38.7,47.2,38.7,47.2,38.7,47.2l-3.7,0c0,0,0,0,0,0V46c0,0,0,0,0,0h3.6c0,0,0,0,0,0
				V47.2z"/>
			<path class="st1" d="M45.9,44.8h-3.6c-0.6,0-1.2,0.5-1.2,1.2v1.2c0,0.6,0.5,1.2,1.2,1.2h3.6c0.6,0,1.2-0.5,1.2-1.2V46
				C47.1,45.3,46.6,44.8,45.9,44.8z M46,47.2C46,47.2,46,47.2,46,47.2l-3.7,0c0,0,0,0,0,0V46c0,0,0,0,0,0h3.6c0,0,0,0,0,0V47.2z"/>
			<path class="st1" d="M53.2,44.8h-3.6c-0.6,0-1.2,0.5-1.2,1.2v1.2c0,0.6,0.5,1.2,1.2,1.2h3.6c0.6,0,1.2-0.5,1.2-1.2V46
				C54.4,45.3,53.8,44.8,53.2,44.8z M53.2,47.2C53.2,47.2,53.2,47.2,53.2,47.2l-3.7,0c0,0,0,0,0,0V46c0,0,0,0,0,0h3.6c0,0,0,0,0,0
				V47.2z"/>
			<path class="st1" d="M51.4,35.1c-0.7,0-1.3,0.2-1.8,0.6c-0.5-0.4-1.2-0.6-1.8-0.6c-1.6,0-3,1.3-3,3c0,1.6,1.3,3,3,3
				c0.7,0,1.3-0.2,1.8-0.6c0.5,0.4,1.2,0.6,1.8,0.6c1.6,0,3-1.3,3-3C54.4,36.5,53,35.1,51.4,35.1z M51.4,40c-0.5,0-1-0.2-1.4-0.6
				c-0.1-0.1-0.3-0.2-0.4-0.2s-0.3,0.1-0.4,0.2c-0.4,0.4-0.9,0.6-1.4,0.6c-1,0-1.9-0.8-1.9-1.9c0-1,0.8-1.9,1.9-1.9
				c0.5,0,1,0.2,1.4,0.6c0.1,0.1,0.3,0.2,0.4,0.2s0.3-0.1,0.4-0.2c0.4-0.4,0.9-0.6,1.4-0.6c1,0,1.9,0.8,1.9,1.9
				C53.2,39.2,52.4,40,51.4,40z"/>
		</g>
	</g>
</g>
<path class="st2" d="M-375.1,38c0,1.3-0.9,2.1-1.6,2.7c-0.3,0.2-0.8,0.6-0.7,0.8c0,0.6-0.5,1.1-1.1,1.1c0,0,0,0,0,0
	c-0.6,0-1.1-0.5-1.1-1c0-1.2,0.8-1.8,1.5-2.4c0.5-0.4,0.9-0.8,0.9-1c0-0.6-0.5-1.1-1.1-1.1c-0.6,0-1.1,0.5-1.1,1.1
	c0,0.6-0.5,1.1-1.1,1.1c-0.6,0-1.1-0.5-1.1-1.1c0-1.8,1.4-3.2,3.2-3.2C-376.5,34.9-375.1,36.3-375.1,38z M-378.5,43.5
	c-0.6,0-1,0.5-1,1.1v0c0,0.6,0.5,1.1,1,1.1c0.6,0,1.1-0.5,1.1-1.1S-377.9,43.5-378.5,43.5z M-400,51c-0.6,0-1.1,0.5-1.1,1.1
	c0,0.6,0.5,1.1,1.1,1.1h0.1c0.6,0,1.1-0.5,1.1-1.1C-398.9,51.4-399.3,51-400,51L-400,51z M-396.3,51c-0.6,0-1.1,0.5-1.1,1.1
	c0,0.6,0.5,1.1,1.1,1.1h0.1c0.6,0,1.1-0.5,1.1-1.1C-395.2,51.4-395.6,51-396.3,51L-396.3,51z M-365,33.9v12c0,2.8-2.3,5.1-5.1,5.1
	h-13.8c-0.3,0-0.5,0-0.7,0c-0.2,0-0.4,0-0.5,0c-0.1,0.1-0.3,0.3-0.5,0.5c-0.1,0.1-0.2,0.2-0.3,0.3l-3.9,3.6
	c-0.3,0.3-0.8,0.4-1.2,0.2c-0.4-0.2-0.7-0.6-0.7-1V43.3h-11.2c-1.7,0-3,1.4-3,3v12c0,1.7,1.4,3,3,3h15.4c0.3,0,0.5,0.1,0.7,0.3
	l3.2,2.9V54.4c0-0.6,0.5-1.1,1.1-1.1c0.6,0,1.1,0.5,1.1,1.1v12.5c0,0.4-0.2,0.8-0.6,1c-0.1,0.1-0.3,0.1-0.4,0.1
	c-0.3,0-0.5-0.1-0.7-0.3l-4.7-4.3h-15c-2.8,0-5.2-2.3-5.2-5.1v-12c0-2.8,2.3-5.2,5.2-5.2h11.2v-7.2c0-2.8,2.4-5.1,5.2-5.1h16.3
	C-367.3,28.8-365,31.1-365,33.9z M-367.1,33.9c0-1.7-1.3-3-3-3h-16.3c-1.7,0-3.1,1.3-3.1,3v8.3v9.9l2.1-1.9c0.1-0.1,0.2-0.2,0.3-0.2
	c1-0.9,1.2-1,2.5-1c0.2,0,0.4,0,0.6,0h13.8c1.7,0,3-1.3,3-3V33.9L-367.1,33.9z"/>
</svg>
