<?xml version="1.0" encoding="utf-8"?>
<!-- Generator: Adobe Illustrator 22.1.0, SVG Export Plug-In . SVG Version: 6.00 Build 0)  -->
<svg version="1.1" id="Layer_1" xmlns="http://www.w3.org/2000/svg" xmlns:xlink="http://www.w3.org/1999/xlink" x="0px" y="0px"
	 viewBox="0 0 80 80" style="enable-background:new 0 0 80 80;" xml:space="preserve">
<style type="text/css">
	.st0{fill:#EAEBFE;}
	.st1{fill:#7279F8;}
</style>
<g>
	<circle class="st0" cx="39.5" cy="40.5" r="33.5"/>
</g>
<g>
	<g id="banknote">
		<path class="st1" d="M57.3,35.2L45.4,23.4c-0.6-0.6-1.4-0.8-2.3-0.6c-0.4,0.1-0.8,0.3-1.1,0.6c-0.3,0.3-0.5,0.6-0.6,1
			c-0.5,1.7-1.5,3.3-2.8,4.6c-1.8,1.8-4.2,3.2-6.8,4.7c-2.7,1.6-5.5,3.2-7.7,5.4c-1.9,1.9-3.3,4.1-4,6.6c-0.3,0.8,0,1.8,0.6,2.4
			L32.6,60c0.6,0.6,1.4,0.8,2.3,0.6c0.4-0.1,0.8-0.3,1.1-0.6c0.3-0.3,0.5-0.6,0.6-1c0.5-1.7,1.5-3.3,2.8-4.6
			c1.8-1.8,4.2-3.2,6.8-4.7c2.7-1.6,5.5-3.2,7.7-5.5c1.9-1.9,3.3-4.1,4-6.6C58.2,36.8,57.9,35.9,57.3,35.2z M34.2,58.3
			c-3.9-3.9-7.9-7.9-11.9-11.9C25.7,35.5,40.4,36,43.7,25c3.9,3.9,7.9,7.9,11.9,11.9C52.3,47.8,37.6,47.4,34.2,58.3z"/>
		<path class="st1" d="M43.2,40.4c-0.4-0.3-0.8-0.5-1.2-0.7c-0.4-0.1-0.8-0.2-1.2-0.1c-0.4,0-0.8,0.1-1.2,0.3
			c-0.4,0.2-0.8,0.3-1.2,0.5c-0.6-0.7-1.3-1.5-1.9-2.1c0.3-0.3,0.6-0.4,0.8-0.4c0.3,0,0.5,0,0.8,0.1c0.3,0.1,0.5,0.1,0.7,0.2
			c0.2,0,0.4,0,0.6-0.1c0.2-0.1,0.3-0.3,0.3-0.6c0-0.2-0.1-0.5-0.3-0.7c-0.3-0.3-0.6-0.5-0.9-0.5c-0.4-0.1-0.7-0.1-1.1,0
			c-0.4,0.1-0.7,0.2-1.1,0.4s-0.6,0.4-0.8,0.6c-0.1-0.1-0.2-0.1-0.2-0.2c-0.1-0.1-0.2-0.1-0.3-0.1c-0.1,0-0.2,0.1-0.3,0.2
			c-0.1,0.1-0.1,0.2-0.1,0.3c0,0.1,0.1,0.2,0.2,0.3c0.1,0.1,0.2,0.1,0.2,0.2c-0.3,0.4-0.6,0.8-0.8,1.2c-0.2,0.4-0.3,0.9-0.4,1.3
			c0,0.4,0,0.8,0.1,1.1c0.1,0.4,0.4,0.7,0.7,0.9c0.6,0.5,1.2,0.7,2,0.6c0.8,0,1.6-0.3,2.5-0.7c0.7,0.8,1.4,1.6,2.1,2.4
			c-0.3,0.3-0.6,0.4-0.8,0.4c-0.2,0-0.4,0-0.6,0c-0.2-0.1-0.4-0.1-0.5-0.2c-0.2-0.1-0.3-0.2-0.5-0.3c-0.2-0.1-0.3-0.1-0.5-0.1
			c-0.2,0-0.3,0.1-0.5,0.2c-0.2,0.2-0.3,0.4-0.3,0.6c0,0.2,0.1,0.4,0.3,0.7c0.2,0.2,0.5,0.4,0.8,0.6c0.3,0.2,0.7,0.2,1.1,0.3
			c0.4,0,0.8,0,1.2-0.2c0.4-0.2,0.9-0.5,1.3-0.9c0.2,0.2,0.4,0.4,0.6,0.6c0.1,0.1,0.2,0.1,0.3,0.1c0.1,0,0.2-0.1,0.3-0.2
			c0.1-0.1,0.1-0.2,0.1-0.3c0-0.1-0.1-0.2-0.1-0.3c-0.2-0.2-0.4-0.3-0.6-0.5c0.4-0.4,0.6-0.9,0.9-1.4c0.2-0.5,0.3-0.9,0.4-1.3
			c0-0.4,0-0.8-0.1-1.1C43.8,40.9,43.6,40.6,43.2,40.4z M36.6,41.2c-0.3,0-0.6-0.1-0.9-0.3c-0.1-0.1-0.2-0.2-0.2-0.4
			c0-0.2-0.1-0.3,0-0.5c0-0.2,0.1-0.4,0.2-0.6c0.1-0.2,0.2-0.4,0.4-0.6c0.6,0.6,1.2,1.3,1.8,1.9C37.3,41,36.9,41.1,36.6,41.2z
			 M42.2,43.5c-0.1,0.2-0.2,0.4-0.4,0.5c-0.7-0.7-1.3-1.4-2-2.2c0.2-0.1,0.3-0.2,0.5-0.2c0.2-0.1,0.4-0.1,0.6-0.2c0.2,0,0.4,0,0.6,0
			c0.2,0,0.4,0.2,0.5,0.3c0.2,0.2,0.3,0.3,0.3,0.5c0,0.2,0,0.4,0,0.6C42.4,43.1,42.3,43.3,42.2,43.5z"/>
		<path class="st1" d="M37.5,49L37.5,49c-0.7,0.6-1.5,1.2-2.1,1.8c-0.6,0.6-1.2,1.3-1.7,2L32.8,54l0,0c-0.1,0.2-0.1,0.5,0.1,0.7
			c0.2,0.2,0.6,0.2,0.8,0c0,0,0.1-0.1,0.1-0.1l0.8-1c0.5-0.6,1-1.3,1.6-1.9c0.7-0.7,1.3-1.2,2-1.8l0,0c0,0,0,0,0.1,0
			c0.2-0.2,0.2-0.6,0-0.8C38.1,48.8,37.7,48.8,37.5,49z"/>
		<path class="st1" d="M41.8,31.8c-0.6,0.6-1.3,1.2-2,1.7c0,0-0.1,0.1-0.1,0.1c-0.2,0.2-0.2,0.6,0,0.8c0.2,0.2,0.6,0.2,0.8,0l0,0
			c0.7-0.6,1.5-1.2,2.1-1.8c0.6-0.6,1.2-1.3,1.7-2l0.8-1.1l0,0c0.2-0.2,0.2-0.6,0-0.8c-0.2-0.2-0.6-0.2-0.8,0c0,0-0.1,0.1-0.1,0.1
			l-0.8,1.1C43,30.6,42.4,31.2,41.8,31.8z"/>
	</g>
</g>
</svg>
