<?xml version="1.0"?>
<svg xmlns="http://www.w3.org/2000/svg" xmlns:xlink="http://www.w3.org/1999/xlink" version="1.1" id="Capa_1" x="0px" y="0px" viewBox="0 0 512.015 512.015" style="enable-background:new 0 0 512.015 512.015;" xml:space="preserve" width="512px" height="512px" class=""><g><path style="fill:#39335C" d="M224.014,373.341h64c5.891,0,10.667,4.776,10.667,10.667v64c0,5.891-4.776,10.667-10.667,10.667h-64  c-5.891,0-10.667-4.776-10.667-10.667v-64C213.347,378.116,218.123,373.341,224.014,373.341z" data-original="#607D8B" class="active-path" data-old_color="#39335c"/><g>
	<path style="fill:#4B456F" d="M352.014,426.674h-192c-29.455,0-53.333,23.878-53.333,53.333c0,5.891,4.776,10.667,10.667,10.667   h277.333c5.891,0,10.667-4.776,10.667-10.667C405.347,450.552,381.469,426.674,352.014,426.674z" data-original="#455A64" class="" data-old_color="#4b456f"/>
	<path style="fill:#4B456F" d="M480.014,192.007h-448c-5.891,0-10.667,4.776-10.667,10.667v149.333   c0,29.455,23.878,53.333,53.333,53.333h362.667c29.455,0,53.333-23.878,53.333-53.333V202.674   C490.681,196.783,485.905,192.007,480.014,192.007z" data-original="#455A64" class="" data-old_color="#4b456f"/>
</g><rect x="42.681" y="195.698" style="fill:#FAFAFA;" width="426.667" height="145.643" data-original="#FAFAFA" class=""/><path style="fill:#737AFC" d="M149.347,21.341l-40.533,208.427c-3.349,4.816-7.372,9.127-11.947,12.8  c-14.44,11.399-33.302,15.565-51.2,11.307c-27.424-7.44-46.253-32.605-45.653-61.013c-0.038-9.865,2.858-19.518,8.32-27.733  L74.041,45.874c9.833-15.217,26.682-24.444,44.8-24.533H149.347z" data-original="#2196F3" class="" data-old_color="##737AF"/><path style="fill:#EAEBFE" d="M217.614,21.341l-10.667,208.427c-18.814,27.099-56.035,33.815-83.133,15  c-5.855-4.065-10.935-9.145-15-15l40.533-208.427H217.614z" data-original="#64B5F6" class="" data-old_color="#eaebfe"/><path style="fill:#737AFC" d="M305.081,229.767c-18.814,27.099-56.035,33.814-83.133,15c-5.855-4.065-10.935-9.145-15-15  l10.667-208.427h76.8L305.081,229.767z" data-original="#2196F3" class="" data-old_color="##737AF"/><path style="fill:#EAEBFE" d="M403.214,229.767c-18.814,27.099-56.035,33.815-83.133,15c-5.855-4.065-10.935-9.145-15-15  L294.414,21.341h69.12L403.214,229.767z" data-original="#64B5F6" class="" data-old_color="#eaebfe"/><path style="fill:#737AFC" d="M512.014,192.861v21.333c0,29.653-20.053,33.92-39.253,38.187l-6.4,1.493  c-17.898,4.258-36.76,0.093-51.2-11.307c-4.574-3.673-8.598-7.984-11.947-12.8l-39.68-208.427h29.653  c17.806,0.035,34.432,8.908,44.373,23.68l66.347,120.533C509.25,173.654,512.071,183.157,512.014,192.861z" data-original="#2196F3" class="" data-old_color="##737AF"/></g> </svg>
