<?xml version="1.0"?>
<svg xmlns="http://www.w3.org/2000/svg" xmlns:xlink="http://www.w3.org/1999/xlink" version="1.1" id="Capa_1" x="0px" y="0px" viewBox="0 0 512 512" style="enable-background:new 0 0 512 512;" xml:space="preserve" width="512px" height="512px" class=""><g><path style="fill:#737AFC" d="M394.667,256C318.117,255.918,256.082,193.883,256,117.333c0-3.605,0.277-7.125,0.533-10.667H96  c-5.891-0.001-10.668,4.773-10.669,10.664c0,0.717,0.072,1.433,0.216,2.136L128.213,332.8c1.079,5.531,6.274,9.269,11.861,8.533  l320-42.667c4.339-0.58,7.883-3.752,8.939-8L486.4,221.12C461.132,243.599,428.486,256.012,394.667,256z" data-original="#FFC107" class="" data-old_color="##737AF"/><g>
	<circle style="fill:#455A64;" cx="394.667" cy="458.667" r="53.333" data-original="#455A64" class=""/>
	<circle style="fill:#455A64;" cx="181.333" cy="458.667" r="53.333" data-original="#455A64" class=""/>
	<path style="fill:#455A64;" d="M191.125,384h246.208c5.891,0,10.667-4.776,10.667-10.667s-4.776-10.667-10.667-10.667H191.125   c-25.408-0.053-47.272-17.976-52.309-42.88L85.12,51.2c-1.014-4.967-5.384-8.534-10.453-8.533h-64C4.776,42.667,0,47.442,0,53.333   S4.776,64,10.667,64H65.92l51.989,259.968C124.954,358.831,155.557,383.924,191.125,384z" data-original="#455A64" class=""/>
</g><circle style="fill:#EAEBFE" cx="394.667" cy="117.333" r="117.333" data-original="#F44336" class="active-path" data-old_color="#eaebfe"/><path style="fill:#FAFAFA;" d="M373.333,170.667c-2.831,0.005-5.548-1.115-7.552-3.115l-42.667-42.667  c-4.092-4.237-3.975-10.99,0.262-15.083c4.134-3.992,10.687-3.992,14.82,0l35.136,35.115l77.781-77.781  c4.093-4.237,10.845-4.354,15.083-0.262s4.354,10.845,0.262,15.083c-0.086,0.089-0.173,0.176-0.262,0.262l-85.333,85.333  C378.865,169.546,376.157,170.666,373.333,170.667z" data-original="#FAFAFA" class=""/></g> </svg>
